<?xml version="1.0" encoding="UTF-8" standalone="no"?>
<!-- Created with Inkscape (http://www.inkscape.org/) -->

<svg
   width="173.33203"
   height="100"
   viewBox="0 0 173.33203 100"
   version="1.1"
   id="svg5"
   xml:space="preserve"
   sodipodi:docname="/tmp/ink_ext_XXXXXX.svg3ZGBN3"
   xmlns:inkscape="http://www.inkscape.org/namespaces/inkscape"
   xmlns:sodipodi="http://sodipodi.sourceforge.net/DTD/sodipodi-0.dtd"
   xmlns="http://www.w3.org/2000/svg"
   xmlns:svg="http://www.w3.org/2000/svg"><sodipodi:namedview
     id="namedview7"
     pagecolor="#ffffff"
     bordercolor="#000000"
     borderopacity="0.25"
     inkscape:showpageshadow="2"
     inkscape:pageopacity="0.0"
     inkscape:pagecheckerboard="0"
     inkscape:deskcolor="#d1d1d1"
     inkscape:document-units="px"
     showgrid="false"
     inkscape:zoom="3.2703689"
     inkscape:cx="260.82685"
     inkscape:cy="245.38516"
     inkscape:window-width="1362"
     inkscape:window-height="745"
     inkscape:window-x="0"
     inkscape:window-y="19"
     inkscape:window-maximized="1"
     inkscape:current-layer="layer1" /><defs
     id="defs2" /><g
     inkscape:label="Layer 1"
     inkscape:groupmode="layer"
     id="layer1"
     transform="translate(-151.72461,-37.833981)"><g
       id="g29773"
       transform="translate(16.923868,-109.77017)"><path
         id="path19863"
         style="fill:#000000;fill-opacity:1;stroke-width:1.33333"
         d="m 190.80074,147.60415 v 1.33399 1.33398 h -1.33398 v 1.33203 1.33399 h -1.33399 v 1.33398 h -1.33203 v 1.33203 h -1.33398 v 1.33399 h -1.33399 v 1.33398 h -1.33203 v 1.33203 h -1.33398 v 1.33399 h -1.33399 -1.33203 v 1.33398 h -1.33398 v 1.33203 1.33399 h 1.33398 v 1.33398 h 1.33203 v 1.33203 1.33399 1.33398 1.33203 1.33399 1.33398 1.33203 1.33399 h -1.33203 v 1.33398 h -1.33398 -1.33399 -1.33203 -1.33398 -1.33399 -1.33203 -1.33398 -1.33399 -1.33203 -1.33398 -1.33399 -1.33203 v -1.33398 h -1.33398 -1.33399 v -1.33399 h -1.33203 v -1.33203 h -1.33398 v -1.33398 h -1.33399 v -1.33399 h -1.33203 v -1.33203 h -1.33398 v -1.33398 h -1.33399 v -1.33399 h -1.33203 -1.33398 v 1.33399 h -1.33399 v 1.33398 1.33203 h -1.33203 v 1.33399 h -1.33398 v 1.33398 h -1.33399 v 1.33203 h -1.33203 v 1.33399 h -1.33398 v 1.33398 h -1.33399 v 1.33203 h -1.33203 v 1.33399 h -1.33398 -1.33399 v 1.33398 h -1.33203 v 1.33203 h 1.33203 v 1.33399 h 1.33399 v 1.33398 1.33203 h 1.33398 v 1.33399 1.33398 1.33203 1.33399 1.33398 1.33203 1.33399 1.33398 1.33203 1.33399 1.33398 1.33203 1.33399 1.33398 h -1.33398 v 1.33203 1.33399 h -1.33399 v 1.33398 1.33203 h 1.33399 1.33398 v 1.33399 h 1.33203 v 1.33398 h 1.33399 v 1.33203 h 1.33398 v 1.33399 h 1.33203 1.33399 v 1.33398 h 1.33398 v 1.33203 h 1.33203 1.33399 v 1.33399 h 1.33398 1.33203 v -1.33399 h 1.33399 v -1.33203 h 1.33398 v -1.33398 h 1.33203 v -1.33399 h 1.33399 v -1.33203 h 1.33398 v 1.33203 1.33399 1.33398 1.33203 1.33399 1.33398 1.33203 1.33399 1.33398 1.33203 1.33399 1.33398 1.33203 1.33399 1.33398 1.33203 1.33399 h -1.33398 v 1.33398 h -1.33399 v 1.33203 h 1.33399 v 1.33399 h 1.33398 v 1.33398 h 1.33203 v 1.33203 1.33399 h 1.33399 v 1.33398 h 1.33398 v 1.33203 h 1.33203 1.33399 v -1.33203 -1.33398 h 1.33398 v -1.33399 h 1.33203 v -1.33203 h 1.33399 v -1.33398 h 1.33398 v -1.33399 -1.33203 -1.33398 h -1.33398 v -1.33399 h -1.33399 v -1.33203 -1.33398 -1.33399 -1.33203 -1.33398 -1.33399 -1.33203 -1.33398 -1.33399 -1.33203 -1.33398 -1.33399 -1.33203 -1.33398 -1.33399 -1.33203 -1.33398 -1.33399 -1.33203 -1.33398 -1.33399 -1.33203 -1.33398 -1.33399 -1.33203 -1.33398 -1.33399 -1.33203 -1.33398 -1.33399 -1.33203 -1.33398 -1.33399 -1.33203 -1.33398 -1.33399 h 1.33399 v -1.33203 h 1.33398 1.33203 1.33399 1.33398 1.33203 1.33399 1.33398 v 1.33203 h 1.33203 v 1.33399 1.33398 1.33203 1.33399 1.33398 1.33203 1.33399 1.33398 1.33203 1.33399 1.33398 1.33203 1.33399 1.33398 h -1.33203 v 1.33203 1.33399 h -1.33398 v 1.33398 1.33203 h 1.33398 v 1.33399 h 1.33203 v 1.33398 h 1.33399 v 1.33203 h 1.33398 v 1.33399 h 1.33203 v 1.33398 h 1.33399 v 1.33203 h 1.33398 1.33203 v -1.33203 h 1.33399 v -1.33398 h 1.33398 v -1.33399 h 1.33203 v -1.33203 h 1.33399 1.33398 v -1.33398 h 1.33203 v -1.33399 h -1.33203 v -1.33203 h -1.33398 v -1.33398 h -1.33399 v -1.33399 h -1.33203 v -1.33203 -1.33398 h -1.33398 v -1.33399 -1.33203 -1.33398 -1.33399 -1.33203 -1.33398 -1.33399 -1.33203 -1.33398 -1.33399 -1.33203 -1.33398 -1.33399 h 1.33398 v -1.33203 h 1.33203 1.33399 1.33398 1.33203 1.33399 1.33398 1.33203 1.33399 1.33398 v 1.33203 h 1.33203 v 1.33399 1.33398 1.33203 1.33399 1.33398 1.33203 1.33399 1.33398 1.33203 1.33399 1.33398 1.33203 1.33399 1.33398 h -1.33203 v 1.33203 1.33399 h -1.33398 v 1.33398 h -1.33399 v 1.33203 h 1.33399 v 1.33399 h 1.33398 v 1.33398 h 1.33203 v 1.33203 h 1.33399 v 1.33399 h 1.33398 v 1.33398 h 1.33203 v 1.33203 h 1.33399 1.33398 v -1.33203 h 1.33203 v -1.33398 h 1.33399 v -1.33399 h 1.33398 v -1.33203 h 1.33203 v -1.33398 h 1.33399 v -1.33399 h 1.33398 v -1.33203 h -1.33398 v -1.33398 h -1.33399 v -1.33399 h -1.33203 v -1.33203 -1.33398 h -1.33398 v -1.33399 -1.33203 -1.33398 -1.33399 -1.33203 -1.33398 -1.33399 -1.33203 -1.33398 -1.33399 -1.33203 -1.33398 -1.33399 -1.33203 h 1.33398 v -1.33398 h 1.33203 1.33399 v -1.33399 h 1.33398 1.33203 1.33399 v 1.33399 h 1.33398 v 1.33398 1.33203 1.33399 h 1.33203 v 1.33398 1.33203 1.33399 1.33398 1.33203 1.33399 1.33398 1.33203 1.33399 1.33398 1.33203 1.33399 1.33398 1.33203 1.33399 1.33398 1.33203 1.33399 1.33398 1.33203 1.33399 1.33398 1.33203 1.33399 1.33398 1.33203 1.33399 1.33398 1.33203 1.33399 1.33398 h 1.33399 v -1.33398 -1.33399 h 1.33398 v -1.33203 -1.33398 -1.33399 h 1.33203 v -1.33203 -1.33398 h 1.33399 v -1.33399 -1.33203 h 1.33398 v -1.33398 h 1.33203 v -1.33399 h 1.33399 v -1.33203 h 1.33398 v -1.33398 h 1.33203 1.33399 1.33398 v 1.33398 h 1.33203 1.33399 v 1.33203 h 1.33398 v 1.33399 h 1.33203 1.33399 v 1.33398 h 1.33398 v 1.33203 h 1.33203 v 1.33399 h 1.33399 1.33398 v 1.33398 h 1.33203 v 1.33203 h 1.33399 1.33398 v -1.33203 h 1.33203 v -1.33398 h 1.33399 v -1.33399 h 1.33398 v -1.33203 h 1.33203 v -1.33398 h 1.33399 v -1.33399 h 1.33398 1.33203 v -1.33203 h 1.33399 v -1.33398 h 1.33398 v -1.33399 h 1.33203 v -1.33203 h 1.33399 v -1.33398 h 1.33398 v -1.33399 h -1.33398 v -1.33203 h -1.33399 v -1.33398 -1.33399 -1.33203 -1.33398 -1.33399 -1.33203 -1.33398 -1.33399 -1.33203 -1.33398 -1.33399 -1.33203 -1.33398 -1.33399 -1.33203 h 1.33399 v -1.33398 h 1.33398 1.33203 v 1.33398 h 1.33399 v 1.33203 1.33399 1.33398 1.33203 1.33399 1.33398 1.33203 1.33399 1.33398 1.33203 1.33399 1.33398 1.33203 1.33399 1.33398 1.33203 1.33399 1.33398 1.33203 1.33399 1.33398 1.33203 1.33399 1.33398 1.33203 1.33399 1.33398 1.33203 1.33399 1.33398 1.33203 1.33399 1.33398 1.33203 1.33399 1.33398 h -1.33399 v 1.33203 1.33399 h -1.33203 v 1.33398 h -1.33398 v 1.33203 1.33399 h 1.33398 v 1.33398 h 1.33203 v 1.33203 h 1.33399 v 1.33399 h 1.33398 v 1.33398 h 1.33203 v 1.33203 h 1.33399 1.33398 v -1.33203 h 1.33203 v -1.33398 h 1.33399 v -1.33399 h 1.33398 v -1.33203 h 1.33203 v -1.33398 h 1.33399 v -1.33399 -1.33203 h -1.33399 v -1.33398 h -1.33203 v -1.33399 -1.33203 h -1.33398 v -1.33398 -1.33399 -1.33203 -1.33398 -1.33399 -1.33203 -1.33398 -1.33399 -1.33203 -1.33398 -1.33399 -1.33203 -1.33398 -1.33399 -1.33203 -1.33398 -1.33399 -1.33203 -1.33398 -1.33399 -1.33203 -1.33398 -1.33399 -1.33203 -1.33398 -1.33399 -1.33203 -1.33398 -1.33399 -1.33203 -1.33398 -1.33399 -1.33203 -1.33398 -1.33399 -1.33203 -1.33398 h 1.33398 v -1.33399 h 1.33203 v -1.33203 h 1.33399 1.33398 1.33203 1.33399 1.33398 v 1.33203 h 1.33203 v 1.33399 h 1.33399 v 1.33398 1.33203 1.33399 1.33398 1.33203 1.33399 1.33398 1.33203 1.33399 1.33398 1.33203 1.33399 1.33398 1.33203 1.33399 1.33398 1.33203 h -1.33399 v 1.33399 1.33398 h -1.33203 v 1.33203 h -1.33398 v 1.33399 1.33398 h 1.33398 v 1.33203 h 1.33203 v 1.33399 h 1.33399 v 1.33398 h 1.33398 v 1.33203 h 1.33203 v 1.33399 h 1.33399 v 1.33398 h 1.33398 v -1.33398 h 1.33203 v -1.33399 h 1.33399 v -1.33203 h 1.33398 v -1.33398 h 1.33203 v -1.33399 h 1.33399 v -1.33203 h 1.33398 v -1.33398 h -1.33398 v -1.33399 h -1.33399 v -1.33203 -1.33398 h -1.33203 v -1.33399 -1.33203 h -1.33398 v -1.33398 -1.33399 -1.33203 -1.33398 -1.33399 -1.33203 -1.33398 -1.33399 -1.33203 -1.33398 -1.33399 -1.33203 -1.33398 -1.33399 -1.33203 -1.33398 h 1.33398 v -1.33399 -1.33203 h 1.33203 v -1.33398 h 1.33399 v -1.33399 h 1.33398 v -1.33203 h 1.33203 v -1.33398 h -1.33203 -1.33398 v -1.33399 h -1.33399 -1.33203 v -1.33203 h -1.33398 v -1.33398 h -1.33399 v -1.33399 h -1.33203 v -1.33203 -1.33398 h -1.33398 v 1.33398 h -1.33399 v 1.33203 1.33399 h -1.33203 v 1.33398 h -1.33398 v 1.33203 h -1.33399 v 1.33399 h -1.33203 -1.33398 -1.33399 -1.33203 -1.33398 -1.33399 -1.33203 -1.33398 v -1.33399 h -1.33399 v -1.33203 h -1.33203 v -1.33398 h -1.33398 v -1.33399 -1.33203 h -1.33399 v 1.33203 h -1.33203 v 1.33399 1.33398 h -1.33398 v 1.33203 h -1.33399 v 1.33399 h -1.33203 v 1.33398 h -1.33398 -1.33399 -1.33203 v -1.33398 h -1.33398 -1.33399 v -1.33399 h -1.33203 -1.33398 -1.33399 v -1.33203 h -1.33203 -1.33398 v -1.33398 h -1.33399 v -1.33399 h -1.33203 v -1.33203 h -1.33398 v -1.33398 h -1.33399 -1.33203 v 1.33398 h -1.33398 v 1.33203 h -1.33399 v 1.33399 h -1.33203 v 1.33398 h -1.33398 -1.33399 v 1.33203 h -1.33203 -1.33398 v 1.33399 h -1.33399 -1.33203 -1.33398 -1.33399 -1.33203 v -1.33399 h -1.33398 v -1.33203 h -1.33399 v -1.33398 h -1.33203 v -1.33399 h -1.33398 -1.33399 -1.33203 v 1.33399 h -1.33398 -1.33399 v 1.33398 h -1.33203 -1.33398 -1.33399 -1.33203 v 1.33203 h -1.33398 -1.33399 v 1.33399 h -1.33203 -1.33398 v -1.33399 -1.33203 -1.33398 -1.33399 -1.33203 -1.33398 -1.33399 -1.33203 -1.33398 -1.33399 -1.33203 h 1.33398 v -1.33398 -1.33399 -1.33203 h 1.33203 v -1.33398 -1.33399 -1.33203 h 1.33399 v -1.33398 -1.33399 -1.33203 h -1.33399 v 1.33203 h -1.33203 v 1.33399 h -1.33398 v 1.33398 h -1.33399 v 1.33203 h -1.33203 v 1.33399 h -1.33398 v 1.33398 h -1.33399 -1.33203 -1.33398 v 1.33203 h -1.33399 -1.33203 -1.33398 v 1.33399 h -1.33399 v 1.33398 h 1.33399 v 1.33203 h 1.33398 v 1.33399 h 1.33203 v 1.33398 1.33203 1.33399 1.33398 1.33203 1.33399 1.33398 1.33203 1.33399 h -1.33203 v 1.33398 h -1.33398 -1.33399 -1.33203 -1.33398 -1.33399 -1.33203 -1.33398 -1.33399 -1.33203 v -1.33398 h -1.33398 v -1.33399 -1.33203 -1.33398 -1.33399 -1.33203 -1.33398 -1.33399 -1.33203 -1.33398 -1.33399 -1.33203 -1.33398 -1.33399 h 1.33398 v -1.33203 -1.33398 -1.33399 h 1.33203 v -1.33203 -1.33398 -1.33399 -1.33203 -1.33398 -1.33399 z m -40,33.33399 h 1.33203 1.33399 v 1.33398 h 1.33398 v 1.33203 h 1.33203 v 1.33399 h 1.33399 v 1.33398 1.33203 h 1.33398 v 1.33399 1.33398 1.33203 1.33399 1.33398 1.33203 1.33399 1.33398 1.33203 1.33399 1.33398 h -1.33398 v 1.33203 1.33399 h -1.33399 v 1.33398 h -1.33203 v 1.33203 h -1.33398 v 1.33399 h -1.33399 v 1.33398 h -1.33203 v -1.33398 h -1.33398 v -1.33399 h -1.33399 v -1.33203 -1.33398 h -1.33203 v -1.33399 -1.33203 -1.33398 -1.33399 -1.33203 -1.33398 -1.33399 -1.33203 -1.33398 -1.33399 -1.33203 -1.33398 -1.33399 -1.33203 h 1.33203 v -1.33398 -1.33399 h 1.33399 v -1.33203 h 1.33398 z m 100,0 h 1.33203 v 1.33398 h 1.33399 1.33398 v 1.33203 h 1.33203 v 1.33399 h 1.33399 v 1.33398 h 1.33398 v 1.33203 1.33399 1.33398 1.33203 1.33399 1.33398 1.33203 1.33399 1.33398 1.33203 1.33399 1.33398 1.33203 1.33399 h -1.33398 v 1.33398 h -1.33399 v 1.33203 h -1.33203 v 1.33399 h -1.33398 v 1.33398 h -1.33399 v -1.33398 h -1.33203 -1.33398 v -1.33399 h -1.33399 v -1.33203 h -1.33203 v -1.33398 -1.33399 -1.33203 -1.33398 -1.33399 -1.33203 -1.33398 -1.33399 -1.33203 -1.33398 -1.33399 -1.33203 -1.33398 -1.33399 -1.33203 -1.33398 h 1.33203 v -1.33399 h 1.33399 v -1.33203 h 1.33398 z m -17.33398,2.66601 h 1.33398 1.33203 v 1.33399 h 1.33399 v 1.33398 1.33203 1.33399 1.33398 1.33203 1.33399 1.33398 1.33203 1.33399 1.33398 1.33203 1.33399 1.33398 1.33203 1.33399 1.33398 h -1.33399 v 1.33203 h -1.33203 v 1.33399 h -1.33398 v -1.33399 -1.33203 -1.33398 -1.33399 -1.33203 -1.33398 -1.33399 -1.33203 -1.33398 -1.33399 -1.33203 -1.33398 -1.33399 -1.33203 -1.33398 -1.33399 -1.33203 -1.33398 z" /></g></g></svg>
